<svg width="153" height="22" viewBox="0 0 153 22" fill="none" xmlns="http://www.w3.org/2000/svg">
    <path d="M0.0970314 18V1.2H0.961032V10.392L8.25703 1.2H9.28903L4.75303 6.912L10.801 18H9.79303L4.15303 7.656L0.961032 11.664V18H0.0970314ZM14.933 18V1.2H23.693V1.992H15.797V8.904H21.125V9.696H15.797V17.208H24.221V18H14.933ZM32.6782 18V11.352L27.2062 1.2H28.1422L33.1102 10.464L38.0782 1.2H39.0142L33.5422 11.352V18H32.6782ZM46.537 18.288C45.681 18.288 44.901 18.128 44.197 17.808C43.501 17.48 42.901 17.048 42.397 16.512C41.901 15.976 41.521 15.392 41.257 14.76L42.169 14.472C42.569 15.36 43.153 16.08 43.921 16.632C44.689 17.176 45.569 17.448 46.561 17.448C47.753 17.448 48.709 17.14 49.429 16.524C50.157 15.908 50.521 15.008 50.521 13.824C50.521 13.064 50.329 12.404 49.945 11.844C49.561 11.276 49.061 10.792 48.445 10.392C47.829 9.992 47.169 9.656 46.465 9.384C45.905 9.168 45.349 8.928 44.797 8.664C44.253 8.392 43.753 8.072 43.297 7.704C42.849 7.336 42.489 6.9 42.217 6.396C41.945 5.884 41.809 5.28 41.809 4.584C41.809 3.888 41.981 3.264 42.325 2.712C42.677 2.152 43.189 1.712 43.861 1.392C44.541 1.072 45.369 0.912 46.345 0.912C47.041 0.912 47.685 1.028 48.277 1.26C48.869 1.484 49.377 1.804 49.801 2.22C50.225 2.628 50.529 3.112 50.713 3.672L49.849 3.936C49.561 3.24 49.117 2.704 48.517 2.328C47.925 1.944 47.177 1.752 46.273 1.752C45.161 1.752 44.289 2.012 43.657 2.532C43.033 3.044 42.721 3.744 42.721 4.632C42.721 5.352 42.921 5.952 43.321 6.432C43.721 6.904 44.237 7.304 44.869 7.632C45.501 7.96 46.161 8.264 46.849 8.544C47.377 8.76 47.909 9.016 48.445 9.312C48.989 9.6 49.485 9.952 49.933 10.368C50.381 10.784 50.741 11.276 51.013 11.844C51.293 12.412 51.433 13.08 51.433 13.848C51.433 14.792 51.221 15.596 50.797 16.26C50.381 16.916 49.805 17.42 49.069 17.772C48.333 18.116 47.489 18.288 46.537 18.288ZM61.8995 18.288C60.7395 18.288 59.7435 18.048 58.9115 17.568C58.0875 17.08 57.4155 16.424 56.8955 15.6C56.3835 14.768 56.0035 13.836 55.7555 12.804C55.5155 11.764 55.3955 10.696 55.3955 9.6C55.3955 8.48 55.5235 7.404 55.7795 6.372C56.0435 5.332 56.4435 4.404 56.9795 3.588C57.5155 2.764 58.1875 2.112 58.9955 1.632C59.8115 1.152 60.7715 0.912 61.8755 0.912C62.8195 0.912 63.5955 1.044 64.2035 1.308C64.8195 1.564 65.3195 1.9 65.7035 2.316C66.0875 2.732 66.4115 3.168 66.6755 3.624L65.9315 4.056C65.7075 3.672 65.4315 3.308 65.1035 2.964C64.7835 2.612 64.3635 2.328 63.8435 2.112C63.3315 1.888 62.6755 1.776 61.8755 1.776C60.9315 1.776 60.1115 1.992 59.4155 2.424C58.7195 2.856 58.1435 3.44 57.6875 4.176C57.2315 4.912 56.8915 5.748 56.6675 6.684C56.4435 7.62 56.3315 8.592 56.3315 9.6C56.3315 10.592 56.4315 11.556 56.6315 12.492C56.8395 13.428 57.1635 14.268 57.6035 15.012C58.0435 15.748 58.6155 16.336 59.3195 16.776C60.0315 17.208 60.8915 17.424 61.8995 17.424C63.0275 17.424 63.9355 17.164 64.6235 16.644C65.3115 16.116 65.8115 15.536 66.1235 14.904L66.9155 15.216C66.6755 15.728 66.3355 16.22 65.8955 16.692C65.4555 17.156 64.9035 17.54 64.2395 17.844C63.5835 18.14 62.8035 18.288 61.8995 18.288ZM71.183 18V1.2H79.943V1.992H72.047V8.904H77.375V9.696H72.047V17.208H80.471V18H71.183ZM84.9877 18V1.2H85.8277L94.4437 15.144C94.5637 15.336 94.6877 15.536 94.8157 15.744C94.9437 15.952 95.0677 16.16 95.1877 16.368C95.1877 16.16 95.1877 15.956 95.1877 15.756C95.1877 15.548 95.1877 15.344 95.1877 15.144V1.2H96.0517V18H95.2117L86.5957 4.056C86.4757 3.864 86.3517 3.664 86.2237 3.456C86.0957 3.24 85.9717 3.032 85.8517 2.832C85.8517 3.032 85.8517 3.236 85.8517 3.444C85.8517 3.644 85.8517 3.848 85.8517 4.056V18H84.9877ZM104.877 18V2.064H100.269V1.2H110.373V2.064H105.741V18H104.877ZM114.589 18V1.2H123.349V1.992H115.453V8.904H120.781V9.696H115.453V17.208H123.877V18H114.589ZM128.394 18V1.2H134.154C135.37 1.2 136.33 1.416 137.034 1.848C137.738 2.28 138.238 2.832 138.534 3.504C138.83 4.176 138.978 4.872 138.978 5.592C138.978 6.336 138.826 7.036 138.522 7.692C138.218 8.348 137.742 8.896 137.094 9.336C136.446 9.768 135.61 10.024 134.586 10.104L138.45 18H137.49L133.674 10.104H129.258V18H128.394ZM129.258 9.312H134.154C135.154 9.312 135.942 9.128 136.518 8.76C137.094 8.384 137.502 7.912 137.742 7.344C137.99 6.768 138.114 6.184 138.114 5.592C138.114 5.072 137.998 4.536 137.766 3.984C137.542 3.424 137.142 2.952 136.566 2.568C135.998 2.184 135.194 1.992 134.154 1.992H129.258V9.312ZM140.652 21.72V20.904H152.892V21.72H140.652Z"
          fill="black"/>
</svg>
