<svg width="11" height="11" viewBox="0 0 11 11" fill="none" xmlns="http://www.w3.org/2000/svg">
<path d="M5.65615 9.34835C3.30198 9.34835 1.38531 7.43169 1.38531 5.07752C1.38531 2.72335 3.30198 0.806686 5.65615 0.806686C8.01032 0.806686 9.92698 2.72335 9.92698 5.07752C9.92698 7.43169 8.01032 9.34835 5.65615 9.34835ZM5.65615 1.43169C3.64365 1.43169 2.01031 3.06919 2.01031 5.07752C2.01031 7.08585 3.64365 8.72335 5.65615 8.72335C7.66865 8.72335 9.30198 7.08585 9.30198 5.07752C9.30198 3.06919 7.66865 1.43169 5.65615 1.43169Z" fill="#A7A7A7"/>
<path d="M10.0311 9.76503C9.95198 9.76503 9.87281 9.73586 9.81031 9.67336L8.97698 8.84003C8.85614 8.7192 8.85614 8.5192 8.97698 8.39836C9.09781 8.27753 9.29781 8.27753 9.41864 8.39836L10.252 9.2317C10.3728 9.35253 10.3728 9.55253 10.252 9.67336C10.1895 9.73586 10.1103 9.76503 10.0311 9.76503Z" fill="#A7A7A7"/>
</svg>
