<svg width="32" height="32" viewBox="0 0 24 24" fill="none" xmlns="http://www.w3.org/2000/svg">
    <path d="M16.4899 22.75H7.49993C5.77993 22.75 4.48994 22.29 3.68994 21.38C2.88994 20.47 2.57993 19.15 2.78993 17.44L3.68994 9.94C3.94994 7.73 4.50994 5.75 8.40994 5.75H15.6099C19.4999 5.75 20.0599 7.73 20.3299 9.94L21.2299 17.44C21.4299 19.15 21.1299 20.48 20.3299 21.38C19.4999 22.29 18.2199 22.75 16.4899 22.75ZM8.39993 7.25C5.51993 7.25 5.37993 8.38999 5.16993 10.11L4.26994 17.61C4.11994 18.88 4.29993 19.81 4.80993 20.38C5.31993 20.95 6.21993 21.24 7.49993 21.24H16.4899C17.7699 21.24 18.6699 20.95 19.1799 20.38C19.6899 19.81 19.8699 18.88 19.7199 17.61L18.8199 10.11C18.6099 8.37999 18.4799 7.25 15.5899 7.25H8.39993Z"
          fill="#292D32"/>
    <path d="M16 8.75C15.59 8.75 15.25 8.41 15.25 8V4.5C15.25 3.42 14.58 2.75 13.5 2.75H10.5C9.42 2.75 8.75 3.42 8.75 4.5V8C8.75 8.41 8.41 8.75 8 8.75C7.59 8.75 7.25 8.41 7.25 8V4.5C7.25 2.59 8.59 1.25 10.5 1.25H13.5C15.41 1.25 16.75 2.59 16.75 4.5V8C16.75 8.41 16.41 8.75 16 8.75Z"
          fill="#292D32"/>
    <path d="M20.41 17.78H8C7.59 17.78 7.25 17.44 7.25 17.03C7.25 16.62 7.59 16.28 8 16.28H20.41C20.82 16.28 21.16 16.62 21.16 17.03C21.16 17.44 20.82 17.78 20.41 17.78Z"
          fill="#292D32"/>
</svg>
