<svg width="57" height="61" viewBox="0 0 57 61" fill="none" xmlns="http://www.w3.org/2000/svg">
    <path fill-rule="evenodd" clip-rule="evenodd"
          d="M36.1639 7.01424C47.2028 10.8874 53.0345 22.9222 49.1866 33.8891C47.3664 39.0767 43.7054 43.0967 39.1843 45.4835C39.1658 45.7781 39.1071 46.0748 39.0047 46.3667C38.3999 48.0903 36.5018 48.9948 34.7668 48.3861C33.0319 47.7773 32.1149 45.8851 32.7197 44.1615C33.3245 42.4377 35.2227 41.5334 36.9576 42.1421C37.1071 42.1945 37.2503 42.2565 37.3871 42.327C41.1708 40.3561 44.2377 37.0093 45.7566 32.6805C48.943 23.5988 44.1137 13.6325 34.9722 10.425C31.0233 9.03949 26.9148 9.142 23.2644 10.4374C23.2364 10.5635 23.2007 10.6893 23.1569 10.8142C22.5521 12.538 20.6539 13.4424 18.9188 12.8336C17.1839 12.2249 16.2669 10.3327 16.8717 8.60899C17.4765 6.88539 19.3747 5.98087 21.1096 6.5896C21.4279 6.70129 21.7186 6.85631 21.9775 7.04528C26.3976 5.46509 31.3777 5.33491 36.1639 7.01424ZM13.6437 33.9746C15.3787 34.5833 16.2957 36.4756 15.6909 38.1992C15.0861 39.9229 13.1879 40.8273 11.4528 40.2185C9.71793 39.6098 8.80094 37.7177 9.40575 35.9939C9.50385 35.7144 9.6363 35.4564 9.7963 35.2229C7.7343 30.5206 7.37637 25.0705 9.20437 19.8605C10.1334 17.2127 11.5429 14.8701 13.3006 12.8922L15.6133 15.7889C14.355 17.3178 13.3396 19.0884 12.6467 21.0633C11.1253 25.3995 11.432 29.9371 13.1624 33.8446C13.3234 33.8755 13.4841 33.9186 13.6437 33.9746Z"
          fill="#C7A2FF"/>
    <path fill-rule="evenodd" clip-rule="evenodd"
          d="M33.3508 15.184C39.7611 17.4332 43.1475 24.4218 40.913 30.7902C39.4056 35.0865 35.7244 38.0035 31.5205 38.7568L27.6686 50.4648L21.0246 53.4705L15.7582 46.5326L19.9562 34.6231C17.216 31.414 16.205 26.8914 17.6953 22.6439C19.9298 16.2754 26.9405 12.9348 33.3508 15.184ZM27.8498 38.8574C27.8331 38.8554 27.8164 38.8538 27.7997 38.8517L28.9854 35.4724C32.7453 35.6242 36.3159 33.3484 37.619 29.6345C39.2194 25.0731 36.7939 20.0676 32.2025 18.4566C27.6111 16.8456 22.5898 19.2383 20.9894 23.7998C19.6993 27.4764 21.0254 31.4409 23.9923 33.6845L21.7841 40.0541L24.3611 40.9737L23.2624 44.0717L20.7233 43.1885L19.7403 45.9013L21.9972 49.085L24.8469 47.8091L27.8498 38.8574Z"
          fill="url(#paint0_linear_1_16)"/>
    <path d="M28.2088 29.8391C29.9443 30.4481 31.8417 29.544 32.4467 27.8197C33.0517 26.0955 32.1352 24.2041 30.3996 23.5951C28.664 22.9862 26.7666 23.8903 26.1617 25.6145C25.5567 27.3388 26.4732 29.2302 28.2088 29.8391Z"
          fill="url(#paint1_linear_1_16)"/>
    <defs>
        <linearGradient id="paint0_linear_1_16" x1="21.6909" y1="49.1716" x2="31.7047" y2="19.139"
                        gradientUnits="userSpaceOnUse">
            <stop stop-color="#F8C300"/>
            <stop offset="0.278431" stop-color="#F8C300"/>
            <stop offset="0.760784" stop-color="#F8C300"/>
            <stop offset="1" stop-color="#F8C300"/>
        </linearGradient>
        <linearGradient id="paint1_linear_1_16" x1="28.6688" y1="28.5279" x2="29.9396" y2="24.9061"
                        gradientUnits="userSpaceOnUse">
            <stop stop-color="#FF6767"/>
            <stop offset="1" stop-color="#FF6767"/>
        </linearGradient>
    </defs>
</svg>
