<svg width="225" height="61" viewBox="0 0 225 61" fill="none" xmlns="http://www.w3.org/2000/svg">
<path fill-rule="evenodd" clip-rule="evenodd" d="M36.1639 7.01424C47.2028 10.8874 53.0345 22.9222 49.1866 33.8891C47.3664 39.0767 43.7054 43.0967 39.1843 45.4835C39.1658 45.7781 39.1071 46.0748 39.0047 46.3667C38.3999 48.0903 36.5018 48.9948 34.7668 48.3861C33.0319 47.7773 32.1149 45.8851 32.7197 44.1615C33.3245 42.4377 35.2227 41.5334 36.9576 42.1421C37.1071 42.1945 37.2503 42.2565 37.3871 42.327C41.1708 40.3561 44.2377 37.0093 45.7566 32.6805C48.943 23.5988 44.1137 13.6325 34.9722 10.425C31.0233 9.03949 26.9148 9.142 23.2644 10.4374C23.2364 10.5635 23.2007 10.6893 23.1569 10.8142C22.5521 12.538 20.6539 13.4424 18.9188 12.8336C17.1839 12.2249 16.2669 10.3327 16.8717 8.60899C17.4765 6.88539 19.3747 5.98087 21.1096 6.5896C21.4279 6.70129 21.7186 6.85631 21.9775 7.04528C26.3976 5.46509 31.3777 5.33491 36.1639 7.01424ZM13.6437 33.9746C15.3787 34.5833 16.2957 36.4756 15.6909 38.1992C15.0861 39.9229 13.1879 40.8273 11.4528 40.2185C9.71793 39.6098 8.80094 37.7177 9.40575 35.9939C9.50385 35.7144 9.6363 35.4564 9.7963 35.2229C7.7343 30.5206 7.37637 25.0705 9.20437 19.8605C10.1334 17.2127 11.5429 14.8701 13.3006 12.8922L15.6133 15.7889C14.355 17.3178 13.3396 19.0884 12.6467 21.0633C11.1253 25.3995 11.432 29.9371 13.1624 33.8446C13.3234 33.8755 13.4841 33.9186 13.6437 33.9746Z" fill="#C7A2FF"/>
<path fill-rule="evenodd" clip-rule="evenodd" d="M33.3508 15.184C39.7611 17.4332 43.1475 24.4218 40.913 30.7902C39.4056 35.0865 35.7244 38.0035 31.5205 38.7568L27.6686 50.4648L21.0246 53.4705L15.7582 46.5326L19.9562 34.6231C17.216 31.414 16.205 26.8914 17.6953 22.6439C19.9298 16.2754 26.9405 12.9348 33.3508 15.184ZM27.8498 38.8574C27.8331 38.8554 27.8164 38.8538 27.7997 38.8517L28.9854 35.4724C32.7453 35.6242 36.3159 33.3484 37.619 29.6345C39.2194 25.0731 36.7939 20.0676 32.2025 18.4566C27.6111 16.8456 22.5898 19.2383 20.9894 23.7998C19.6993 27.4764 21.0254 31.4409 23.9923 33.6845L21.7841 40.0541L24.3611 40.9737L23.2624 44.0717L20.7233 43.1885L19.7403 45.9013L21.9972 49.085L24.8469 47.8091L27.8498 38.8574Z" fill="url(#paint0_linear_5_22)"/>
<path d="M28.2088 29.8391C29.9443 30.4481 31.8417 29.544 32.4467 27.8197C33.0517 26.0955 32.1352 24.2041 30.3996 23.5951C28.664 22.9862 26.7666 23.8903 26.1617 25.6145C25.5567 27.3388 26.4732 29.2302 28.2088 29.8391Z" fill="url(#paint1_linear_5_22)"/>
<path d="M72.097 37V20.2H72.961V29.392L80.257 20.2H81.289L76.753 25.912L82.801 37H81.793L76.153 26.656L72.961 30.664V37H72.097ZM86.933 37V20.2H95.693V20.992H87.797V27.904H93.125V28.696H87.797V36.208H96.221V37H86.933ZM104.678 37V30.352L99.2062 20.2H100.142L105.11 29.464L110.078 20.2H111.014L105.542 30.352V37H104.678ZM118.537 37.288C117.681 37.288 116.901 37.128 116.197 36.808C115.501 36.48 114.901 36.048 114.397 35.512C113.901 34.976 113.521 34.392 113.257 33.76L114.169 33.472C114.569 34.36 115.153 35.08 115.921 35.632C116.689 36.176 117.569 36.448 118.561 36.448C119.753 36.448 120.709 36.14 121.429 35.524C122.157 34.908 122.521 34.008 122.521 32.824C122.521 32.064 122.329 31.404 121.945 30.844C121.561 30.276 121.061 29.792 120.445 29.392C119.829 28.992 119.169 28.656 118.465 28.384C117.905 28.168 117.349 27.928 116.797 27.664C116.253 27.392 115.753 27.072 115.297 26.704C114.849 26.336 114.489 25.9 114.217 25.396C113.945 24.884 113.809 24.28 113.809 23.584C113.809 22.888 113.981 22.264 114.325 21.712C114.677 21.152 115.189 20.712 115.861 20.392C116.541 20.072 117.369 19.912 118.345 19.912C119.041 19.912 119.685 20.028 120.277 20.26C120.869 20.484 121.377 20.804 121.801 21.22C122.225 21.628 122.529 22.112 122.713 22.672L121.849 22.936C121.561 22.24 121.117 21.704 120.517 21.328C119.925 20.944 119.177 20.752 118.273 20.752C117.161 20.752 116.289 21.012 115.657 21.532C115.033 22.044 114.721 22.744 114.721 23.632C114.721 24.352 114.921 24.952 115.321 25.432C115.721 25.904 116.237 26.304 116.869 26.632C117.501 26.96 118.161 27.264 118.849 27.544C119.377 27.76 119.909 28.016 120.445 28.312C120.989 28.6 121.485 28.952 121.933 29.368C122.381 29.784 122.741 30.276 123.013 30.844C123.293 31.412 123.433 32.08 123.433 32.848C123.433 33.792 123.221 34.596 122.797 35.26C122.381 35.916 121.805 36.42 121.069 36.772C120.333 37.116 119.489 37.288 118.537 37.288ZM133.899 37.288C132.739 37.288 131.743 37.048 130.911 36.568C130.087 36.08 129.415 35.424 128.895 34.6C128.383 33.768 128.003 32.836 127.755 31.804C127.515 30.764 127.395 29.696 127.395 28.6C127.395 27.48 127.523 26.404 127.779 25.372C128.043 24.332 128.443 23.404 128.979 22.588C129.515 21.764 130.187 21.112 130.995 20.632C131.811 20.152 132.771 19.912 133.875 19.912C134.819 19.912 135.595 20.044 136.203 20.308C136.819 20.564 137.319 20.9 137.703 21.316C138.087 21.732 138.411 22.168 138.675 22.624L137.931 23.056C137.707 22.672 137.431 22.308 137.103 21.964C136.783 21.612 136.363 21.328 135.843 21.112C135.331 20.888 134.675 20.776 133.875 20.776C132.931 20.776 132.111 20.992 131.415 21.424C130.719 21.856 130.143 22.44 129.687 23.176C129.231 23.912 128.891 24.748 128.667 25.684C128.443 26.62 128.331 27.592 128.331 28.6C128.331 29.592 128.431 30.556 128.631 31.492C128.839 32.428 129.163 33.268 129.603 34.012C130.043 34.748 130.615 35.336 131.319 35.776C132.031 36.208 132.891 36.424 133.899 36.424C135.027 36.424 135.935 36.164 136.623 35.644C137.311 35.116 137.811 34.536 138.123 33.904L138.915 34.216C138.675 34.728 138.335 35.22 137.895 35.692C137.455 36.156 136.903 36.54 136.239 36.844C135.583 37.14 134.803 37.288 133.899 37.288ZM143.183 37V20.2H151.943V20.992H144.047V27.904H149.375V28.696H144.047V36.208H152.471V37H143.183ZM156.988 37V20.2H157.828L166.444 34.144C166.564 34.336 166.688 34.536 166.816 34.744C166.944 34.952 167.068 35.16 167.188 35.368C167.188 35.16 167.188 34.956 167.188 34.756C167.188 34.548 167.188 34.344 167.188 34.144V20.2H168.052V37H167.212L158.596 23.056C158.476 22.864 158.352 22.664 158.224 22.456C158.096 22.24 157.972 22.032 157.852 21.832C157.852 22.032 157.852 22.236 157.852 22.444C157.852 22.644 157.852 22.848 157.852 23.056V37H156.988ZM176.877 37V21.064H172.269V20.2H182.373V21.064H177.741V37H176.877ZM186.589 37V20.2H195.349V20.992H187.453V27.904H192.781V28.696H187.453V36.208H195.877V37H186.589ZM200.394 37V20.2H206.154C207.37 20.2 208.33 20.416 209.034 20.848C209.738 21.28 210.238 21.832 210.534 22.504C210.83 23.176 210.978 23.872 210.978 24.592C210.978 25.336 210.826 26.036 210.522 26.692C210.218 27.348 209.742 27.896 209.094 28.336C208.446 28.768 207.61 29.024 206.586 29.104L210.45 37H209.49L205.674 29.104H201.258V37H200.394ZM201.258 28.312H206.154C207.154 28.312 207.942 28.128 208.518 27.76C209.094 27.384 209.502 26.912 209.742 26.344C209.99 25.768 210.114 25.184 210.114 24.592C210.114 24.072 209.998 23.536 209.766 22.984C209.542 22.424 209.142 21.952 208.566 21.568C207.998 21.184 207.194 20.992 206.154 20.992H201.258V28.312ZM212.652 40.72V39.904H224.892V40.72H212.652Z" fill="black"/>
<defs>
<linearGradient id="paint0_linear_5_22" x1="21.6909" y1="49.1716" x2="31.7047" y2="19.139" gradientUnits="userSpaceOnUse">
<stop stop-color="#F8C300"/>
<stop offset="0.278431" stop-color="#F8C300"/>
<stop offset="0.760784" stop-color="#F8C300"/>
<stop offset="1" stop-color="#F8C300"/>
</linearGradient>
<linearGradient id="paint1_linear_5_22" x1="28.6688" y1="28.5279" x2="29.9396" y2="24.9061" gradientUnits="userSpaceOnUse">
<stop stop-color="#FF6767"/>
<stop offset="1" stop-color="#FF6767"/>
</linearGradient>
</defs>
</svg>
