<?xml version="1.0" encoding="UTF-8"?>
<!DOCTYPE svg PUBLIC "-//W3C//DTD SVG 1.1//EN" "http://www.w3.org/Graphics/SVG/1.1/DTD/svg11.dtd">
<!-- Creator: CorelDRAW -->
<svg xmlns="http://www.w3.org/2000/svg" xml:space="preserve" width="1002px" height="245px" style="shape-rendering:geometricPrecision; text-rendering:geometricPrecision; image-rendering:optimizeQuality; fill-rule:evenodd; clip-rule:evenodd"
viewBox="0 0 1108.01 270.714"
 xmlns:xlink="http://www.w3.org/1999/xlink">
 <defs>
  <style type="text/css">
   <![CDATA[
    .fil0 {fill:none}
    .fil4 {fill:#1F1A17;fill-rule:nonzero}
    .fil2 {fill:url(#id0)}
    .fil3 {fill:url(#id1)}
    .fil1 {fill:url(#id2)}
   ]]>
  </style>
  <linearGradient id="id0" gradientUnits="userSpaceOnUse" x1="114.451" y1="229.829" x2="112.205" y2="86.8997">
   <stop offset="0" style="stop-color:#DD137B"/>
   <stop offset="0.278431" style="stop-color:#DA251D"/>
   <stop offset="0.760784" style="stop-color:#E77817"/>
   <stop offset="1" style="stop-color:#F8C300"/>
  </linearGradient>
  <linearGradient id="id1" gradientUnits="userSpaceOnUse" x1="113.328" y1="131.441" x2="113.328" y2="114.11">
   <stop offset="0" style="stop-color:#E77817"/>
   <stop offset="1" style="stop-color:#F8C300"/>
  </linearGradient>
  <linearGradient id="id2" gradientUnits="userSpaceOnUse" x1="169.457" y1="163.907" x2="56.7459" y2="71.6544">
   <stop offset="0" style="stop-color:#1A3B86"/>
   <stop offset="1" style="stop-color:#03ABE3"/>
  </linearGradient>
 </defs>
 <g id="Слой_x0020_1">
  <metadata id="CorelCorpID_0Corel-Layer"/>
  <rect class="fil0" x="5.14187e-005" width="1108.01" height="270.714"/>
  <path class="fil1" d="M113.102 28.5732c52.4788,0 95.0374,42.5585 95.0374,95.0374 0,24.824 -9.52605,47.4247 -25.1186,64.3531 0.359209,1.28249 0.551441,2.63443 0.551441,4.03128 0,8.24777 -6.69096,14.9394 -14.9394,14.9394 -8.24777,0 -14.9394,-6.69166 -14.9394,-14.9394 0,-8.24847 6.69166,-14.9394 14.9394,-14.9394 0.7107,0 1.40877,0.0498121 2.09281,0.145929 13.0887,-14.054 21.1,-32.8985 21.1,-53.6126 0,-43.4579 -35.2438,-78.7018 -78.7025,-78.7018 -18.7729,0 -36.0114,6.57871 -49.5392,17.5549 0.0687548,0.579505 0.104535,1.16883 0.104535,1.76658 0,8.24847 -6.69166,14.9394 -14.9401,14.9394 -8.24777,0 -14.9394,-6.69096 -14.9394,-14.9394 0,-8.24777 6.69166,-14.9394 14.9394,-14.9394 1.51331,0 2.974,0.225909 4.35049,0.64405 16.3629,-13.3405 37.2497,-21.3399 60.0033,-21.3399zm-55.2845 148.536c8.24847,0 14.9401,6.69166 14.9401,14.9394 0,8.24847 -6.69166,14.9394 -14.9401,14.9394 -8.24777,0 -14.9394,-6.69096 -14.9394,-14.9394 0,-1.33791 0.1775,-2.63513 0.507944,-3.86921 -15.7119,-16.9523 -25.3214,-39.6385 -25.3214,-64.5692 0,-12.6705 2.4871,-24.7587 6.98984,-35.8135l14.0912 8.8848c-3.05538,8.3951 -4.72373,17.4567 -4.72373,26.907 0,20.7499 8.03729,39.6245 21.1652,53.6863 0.727538,-0.108745 1.47191,-0.165573 2.23032,-0.165573z"/>
  <path class="fil2" d="M113.328 67.5874c30.4745,0 55.1883,24.7138 55.1883,55.1883 0,20.5584 -11.2498,38.4901 -27.9257,47.9845l1.08394 55.6423 -23.6594 22.7389 -32.5961 -21.6872 0.0820848 -57.0188c-16.365,-9.57656 -27.3616,-27.3342 -27.3616,-47.6597 0,-30.4745 24.7138,-55.1883 55.1883,-55.1883zm11.8742 109.089c-0.0736658,0.0161363 -0.14663,0.0343774 -0.220296,0.0505137l0 -16.1707c16.1405,-4.9742 27.8745,-20.0083 27.8745,-37.7801 0,-21.8275 -17.7008,-39.5284 -39.5284,-39.5284 -21.8275,0 -39.5284,17.7008 -39.5284,39.5284 0,17.5935 11.501,32.5028 27.3918,37.6264l0.112954 30.4401 12.2741 0.0659485 -0.0498121 14.8419 -12.0594 0.0329742 -0.131897 13.0276 14.2814 10.1911 10.1673 -9.69653 -0.583714 -42.6294z"/>
  <circle class="fil3" cx="113.328" cy="122.776" r="14.9395"/>
  <path class="fil4" d="M289.13 154.228l-11.4035 11.2512 0 20.8313 -23.7204 0 0 -112.822 23.7204 0 0 63.8613 34.6678 -32.843 28.2814 0 -34.0596 34.6678 37.1002 47.1356 -28.7374 0 -25.849 -32.0825zm141.488 -8.51507c0,0.303784 -0.151541,2.43308 -0.456027,6.38578l-61.8849 0c1.11551,5.06891 3.75064,9.07283 7.9068,12.0124 4.15616,2.93962 9.3261,4.40943 15.5091,4.40943 4.25789,0 8.03379,-0.633526 11.3284,-1.90058 3.29392,-1.26705 6.36052,-3.26936 9.19911,-6.00622l12.62 13.685c-7.70404,8.81885 -18.956,13.2283 -33.7558,13.2283 -9.22437,0 -17.3844,-1.79955 -24.4802,-5.39795 -7.09577,-3.5984 -12.5695,-8.59084 -16.4212,-14.9773 -3.85237,-6.38578 -5.77821,-13.6338 -5.77821,-21.7434 0,-8.00783 1.90058,-15.2299 5.70244,-21.6669 3.80116,-6.43699 9.02161,-11.4547 15.6607,-15.0531 6.63975,-3.5984 14.0653,-5.39795 22.2758,-5.39795 8.00783,0 15.2558,1.72308 21.7434,5.16994 6.48751,3.44616 11.581,8.38808 15.2811,14.8251 3.70013,6.43629 5.54949,13.9123 5.54949,22.4274zm-42.4217 -24.4802c-5.3727,0 -9.88385,1.52032 -13.5328,4.56167 -3.64962,3.04065 -5.87924,7.1968 -6.69026,12.4678l40.2938 0c-0.811026,-5.16924 -3.04135,-9.30014 -6.69026,-12.392 -3.64962,-3.09186 -8.10956,-4.63744 -13.3805,-4.63744zm135.558 -16.7257l-36.9487 86.8212c-3.75064,9.42712 -8.38808,16.0669 -13.913,19.9185 -5.52424,3.85237 -12.1892,5.77821 -19.9943,5.77821 -4.25789,0 -8.46456,-0.658783 -12.6207,-1.97705 -4.15546,-1.31757 -7.5518,-3.14237 -10.1869,-5.47372l8.66661 -16.8772c1.82481,1.62135 3.92814,2.8884 6.31001,3.80116 2.38256,0.912053 4.73917,1.36808 7.07052,1.36808 3.2441,0 5.87924,-0.785769 7.9068,-2.35661 2.02756,-1.57154 3.85167,-4.18141 5.47372,-7.83033l0.304485 -0.760512 -35.4284 -82.4117 24.4802 0 22.9599 55.4984 23.1121 -55.4984 22.8076 0zm33.3797 83.02c-6.79199,0 -13.431,-0.836283 -19.9185,-2.50885 -6.48751,-1.67257 -11.6574,-3.7759 -15.5091,-6.31001l7.9061 -17.0301c3.64962,2.33135 8.05904,4.23193 13.229,5.70174 5.16924,1.47051 10.2381,2.20506 15.2046,2.20506 10.0354,0 15.0531,-2.48359 15.0531,-7.45077 0,-2.33135 -1.36808,-4.00391 -4.10494,-5.0177 -2.73686,-1.01308 -6.94423,-1.87532 -12.6207,-2.58462 -6.69026,-1.01378 -12.2145,-2.17911 -16.5734,-3.49737 -4.35891,-1.31757 -8.13481,-3.64891 -11.3277,-6.99405 -3.19289,-3.34513 -4.78968,-8.10956 -4.78968,-14.2926 0,-5.16994 1.49507,-9.75687 4.4852,-13.7608 2.99083,-4.00391 7.34975,-7.12103 13.0767,-9.35135 5.72699,-2.23032 12.4937,-3.34513 20.2988,-3.34513 5.77821,0 11.5305,0.633526 17.2582,1.90058 5.72699,1.26705 10.4662,3.01609 14.2168,5.24571l-7.9068 16.8779c-7.1975,-4.05443 -15.0531,-6.08199 -23.5682,-6.08199 -5.06821,0 -8.86937,0.709297 -11.4042,2.12859 -2.53411,1.4193 -3.80116,3.2441 -3.80116,5.47372 0,2.53411 1.36878,4.3084 4.10564,5.32218 2.73686,1.01308 7.09577,1.97635 13.076,2.8884 6.69026,1.11551 12.1647,2.30609 16.4219,3.57385 4.25718,1.26705 7.95731,3.57314 11.0997,6.91828 3.14237,3.34513 4.71391,8.00783 4.71391,13.9881 0,5.06891 -1.52102,9.57937 -4.56167,13.5328 -3.04135,3.9534 -7.47603,7.02 -13.3048,9.19911 -5.82872,2.17981 -12.747,3.26936 -20.7548,3.26936zm88.8782 0c-8.71712,0 -16.5482,-1.79955 -23.4917,-5.39795 -6.94353,-3.5984 -12.3667,-8.59084 -16.2696,-14.9773 -3.90218,-6.38578 -5.85398,-13.6338 -5.85398,-21.7434 0,-8.10886 1.95179,-15.3569 5.85398,-21.7434 3.90289,-6.38578 9.3261,-11.3782 16.2696,-14.9766 6.94353,-3.5984 14.7746,-5.39795 23.4917,-5.39795 8.6168,0 16.1433,1.79955 22.5796,5.39795 6.43699,3.5984 11.1256,8.74308 14.0653,15.4333l-18.3982 9.88315c-4.25789,-7.50129 -10.3904,-11.2519 -18.3982,-11.2519 -6.18372,0 -11.3024,2.02756 -15.3576,6.08199 -4.05443,4.05513 -6.08199,9.57937 -6.08199,16.5734 0,6.99475 2.02756,12.519 6.08199,16.5741 4.05513,4.05443 9.17385,6.08199 15.3576,6.08199 8.10886,0 14.2421,-3.75064 18.3982,-11.2519l18.3982 10.0354c-2.93962,6.48751 -7.62827,11.5557 -14.0653,15.2053 -6.43629,3.64891 -13.9628,5.47372 -22.5796,5.47372zm126.587 -41.8141c0,0.303784 -0.151541,2.43308 -0.456027,6.38578l-61.8849 0c1.11551,5.06891 3.75064,9.07283 7.9068,12.0124 4.15616,2.93962 9.3261,4.40943 15.5091,4.40943 4.25789,0 8.03379,-0.633526 11.3284,-1.90058 3.29392,-1.26705 6.36052,-3.26936 9.19911,-6.00622l12.62 13.685c-7.70404,8.81885 -18.956,13.2283 -33.7558,13.2283 -9.22437,0 -17.3844,-1.79955 -24.4802,-5.39795 -7.09577,-3.5984 -12.5695,-8.59084 -16.4212,-14.9773 -3.85237,-6.38578 -5.77821,-13.6338 -5.77821,-21.7434 0,-8.00783 1.90058,-15.2299 5.70244,-21.6669 3.80116,-6.43699 9.02161,-11.4547 15.6607,-15.0531 6.63975,-3.5984 14.0653,-5.39795 22.2758,-5.39795 8.00783,0 15.2558,1.72308 21.7434,5.16994 6.48751,3.44616 11.581,8.38808 15.2811,14.8251 3.70013,6.43629 5.54949,13.9123 5.54949,22.4274zm-42.4217 -24.4802c-5.3727,0 -9.88385,1.52032 -13.5328,4.56167 -3.64962,3.04065 -5.87924,7.1968 -6.69026,12.4678l40.2938 0c-0.811026,-5.16924 -3.04135,-9.30014 -6.69026,-12.392 -3.64962,-3.09186 -8.10956,-4.63744 -13.3805,-4.63744zm104.084 -17.9422c10.1371,0 18.3224,3.04135 24.556,9.12334 6.23424,6.08199 9.35135,15.1036 9.35135,27.0648l0 46.8318 -23.7197 0 0 -43.1822c0,-6.48751 -1.4193,-11.3284 -4.25789,-14.5213 -2.83789,-3.19289 -6.94353,-4.78968 -12.3155,-4.78968 -5.98096,0 -10.7454,1.85007 -14.2933,5.5502 -3.54789,3.69943 -5.32148,9.19911 -5.32148,16.4976l0 40.4454 -23.7204 0 0 -81.8035 22.6561 0 0 9.57937c3.14237,-3.44686 7.04456,-6.10795 11.708,-7.98257 4.6627,-1.87532 9.78142,-2.81333 15.3569,-2.81333zm104.236 79.0666c-2.33205,1.72308 -5.1952,3.01609 -8.59084,3.87763 -3.39635,0.86154 -6.96949,1.29231 -10.7201,1.29231 -9.73091,0 -17.2575,-2.48359 -22.5796,-7.45077 -5.32148,-4.96718 -7.98257,-12.265 -7.98257,-21.8949l0 -33.6036 -12.62 0 0 -18.246 12.62 0 0 -19.9192 23.7204 0 0 19.9192 20.3746 0 0 18.246 -20.3746 0 0 33.2991c0,3.44686 0.886796,6.10725 2.66039,7.98257 1.77429,1.87532 4.28314,2.81333 7.52654,2.81333 3.75064,0 6.94353,-1.01378 9.57937,-3.04135l6.38648 16.7257zm89.638 -36.6442c0,0.303784 -0.151541,2.43308 -0.456027,6.38578l-61.8849 0c1.11551,5.06891 3.75064,9.07283 7.9068,12.0124 4.15616,2.93962 9.3261,4.40943 15.5091,4.40943 4.25789,0 8.03379,-0.633526 11.3284,-1.90058 3.29392,-1.26705 6.36052,-3.26936 9.19911,-6.00622l12.62 13.685c-7.70404,8.81885 -18.956,13.2283 -33.7558,13.2283 -9.22437,0 -17.3844,-1.79955 -24.4802,-5.39795 -7.09577,-3.5984 -12.5695,-8.59084 -16.4212,-14.9773 -3.85237,-6.38578 -5.77821,-13.6338 -5.77821,-21.7434 0,-8.00783 1.90058,-15.2299 5.70244,-21.6669 3.80116,-6.43699 9.02161,-11.4547 15.6607,-15.0531 6.63975,-3.5984 14.0653,-5.39795 22.2758,-5.39795 8.00783,0 15.2558,1.72308 21.7434,5.16994 6.48751,3.44616 11.581,8.38808 15.2811,14.8251 3.70013,6.43629 5.54949,13.9123 5.54949,22.4274zm-42.4217 -24.4802c-5.3727,0 -9.88385,1.52032 -13.5328,4.56167 -3.64962,3.04065 -5.87924,7.1968 -6.69026,12.4678l40.2938 0c-0.811026,-5.16924 -3.04135,-9.30014 -6.69026,-12.392 -3.64962,-3.09186 -8.10956,-4.63744 -13.3805,-4.63744zm77.0187 -5.93045c2.83789,-3.9527 6.665,-6.94353 11.4799,-8.9704 4.81494,-2.02756 10.3644,-3.04135 16.6492,-3.04135l0 21.8956c-2.63513,-0.202756 -4.40943,-0.304485 -5.32148,-0.304485 -6.79199,0 -12.1135,1.90058 -15.9658,5.70244 -3.85167,3.80116 -5.77751,9.50289 -5.77751,17.1052l0 38.6212 -23.7204 0 0 -81.8035 22.6561 0 0 10.7952z"/>
 </g>
</svg>
