<?xml version="1.0" standalone="no"?>
<!DOCTYPE svg PUBLIC "-//W3C//DTD SVG 20010904//EN"
        "http://www.w3.org/TR/2001/REC-SVG-20010904/DTD/svg10.dtd">
<svg version="1.0" xmlns="http://www.w3.org/2000/svg"
     width="976.000000pt" height="976.000000pt" viewBox="0 0 976.000000 976.000000"
     preserveAspectRatio="xMidYMid meet">
    <metadata>
        Created by potrace 1.14, written by Peter Selinger 2001-2017
    </metadata>
    <g transform="translate(0.000000,976.000000) scale(0.100000,-0.100000)"
       fill="#000000" stroke="none">
        <path d="M4988 8835 c-1 -1 -73 -6 -158 -9 -85 -4 -172 -9 -192 -11 -21 -3
-53 -7 -70 -9 -77 -10 -181 -27 -223 -36 -25 -6 -48 -10 -52 -9 -5 1 -10 0
-13 -1 -3 -1 -12 -3 -20 -5 -8 -2 -53 -13 -100 -25 -47 -11 -92 -23 -100 -25
-8 -2 -62 -19 -120 -38 -86 -29 -108 -33 -120 -22 -36 30 -136 69 -210 82 -39
7 -142 7 -180 0 -80 -14 -100 -20 -100 -28 0 -5 -8 -9 -18 -9 -28 0 -136 -76
-187 -132 -50 -55 -107 -165 -124 -237 -31 -138 8 -313 96 -429 84 -112 229
-200 339 -205 19 -1 34 -4 34 -7 0 -6 103 -3 141 3 146 27 271 107 347 222 15
22 29 42 32 45 8 7 38 88 37 100 -1 11 24 50 31 48 4 -1 45 11 92 26 47 15 93
29 103 31 10 2 28 7 39 11 11 3 30 8 41 9 12 2 41 9 65 14 23 6 59 14 80 16
20 3 48 8 62 10 138 25 183 28 420 28 236 1 336 -4 439 -23 98 -17 135 -23
156 -24 11 -1 22 -4 25 -8 3 -4 21 -9 40 -12 68 -9 263 -69 396 -121 95 -38
358 -165 362 -176 2 -5 12 -9 23 -9 10 0 19 -4 19 -8 0 -5 19 -19 43 -32 35
-19 135 -85 172 -113 145 -109 232 -184 348 -299 48 -48 87 -93 87 -98 0 -6 5
-8 10 -5 6 3 10 3 10 -2 0 -4 14 -24 31 -43 24 -28 189 -244 217 -286 25 -36
34 -52 45 -76 6 -16 15 -28 19 -28 4 0 8 -7 8 -15 0 -8 5 -15 11 -15 5 0 8 -4
4 -9 -3 -5 -1 -12 4 -15 12 -8 93 -166 138 -269 55 -129 118 -312 143 -417 18
-71 52 -236 56 -270 3 -19 7 -48 9 -65 19 -128 25 -438 12 -595 -7 -80 -10
-104 -22 -183 -3 -17 -7 -43 -10 -57 -12 -75 -19 -106 -50 -225 -35 -130 -77
-261 -89 -272 -3 -4 -6 -12 -6 -19 0 -8 -11 -37 -24 -66 -32 -70 -59 -132 -61
-138 -7 -28 -142 -268 -162 -288 -6 -6 -15 -21 -18 -32 -3 -11 -11 -20 -16
-20 -5 0 -9 -7 -9 -15 0 -8 -4 -15 -10 -15 -5 0 -10 -5 -10 -10 0 -11 -74
-111 -144 -194 -88 -106 -240 -260 -316 -322 -19 -16 -40 -33 -46 -39 -39 -37
-213 -165 -224 -165 -4 0 -10 -4 -12 -8 -4 -10 -217 -137 -243 -145 -11 -4
-33 0 -49 8 -15 8 -36 15 -45 15 -10 0 -21 3 -24 7 -11 11 -57 16 -147 16
-181 0 -345 -90 -444 -246 -28 -44 -48 -86 -51 -107 0 -3 -3 -9 -7 -15 -10
-17 -22 -126 -20 -188 5 -145 104 -322 228 -405 31 -21 140 -71 170 -78 39
-10 220 -10 264 -1 73 16 182 80 245 144 72 72 116 152 141 255 20 86 23 90
77 117 23 11 60 32 82 46 22 14 47 28 55 32 8 3 17 9 20 13 3 3 30 21 60 40
30 19 57 37 60 40 3 4 12 9 20 12 23 10 219 165 306 243 133 120 333 328 358
373 5 9 15 22 22 27 17 14 139 176 154 206 7 13 16 26 20 29 15 10 159 258
213 365 85 170 208 487 231 596 3 13 14 60 26 104 11 44 23 89 25 100 12 53
26 130 31 165 1 14 5 39 8 55 36 199 42 680 11 880 -3 17 -7 48 -10 70 -2 22
-7 54 -10 70 -2 17 -7 48 -11 69 -3 22 -17 82 -30 135 -13 53 -27 112 -30 131
-2 19 -9 37 -14 38 -6 2 -8 7 -5 12 6 9 -69 233 -121 360 -45 110 -185 391
-204 410 -3 3 -12 19 -20 35 -8 17 -18 35 -23 40 -4 6 -31 46 -59 90 -29 44
-55 82 -58 85 -3 3 -16 22 -30 42 -14 21 -28 38 -32 38 -5 0 -8 5 -8 10 0 6
-12 23 -26 39 -14 16 -24 31 -22 34 1 3 -6 13 -18 23 -11 11 -47 50 -80 88
-134 157 -321 332 -502 471 -94 72 -278 195 -291 195 -6 0 -11 3 -11 8 0 4 -9
12 -20 17 -10 6 -41 21 -67 34 -26 14 -50 27 -53 30 -10 12 -225 114 -329 156
-91 37 -264 98 -311 111 -8 2 -67 18 -130 35 -63 17 -126 32 -140 34 -14 2
-25 4 -25 5 0 2 -17 5 -125 23 -177 30 -216 34 -415 43 -60 2 -115 6 -122 9
-6 2 -13 2 -15 0z"/>
        <path d="M2400 7642 c-25 -31 -53 -65 -63 -76 -9 -12 -37 -48 -62 -81 -25 -33
-48 -64 -53 -70 -4 -5 -24 -35 -43 -65 -20 -30 -44 -68 -55 -84 -10 -16 -22
-34 -26 -40 -72 -109 -254 -478 -274 -556 -2 -8 -22 -67 -44 -130 -45 -131
-43 -122 -41 -133 1 -4 -3 -16 -8 -26 -6 -10 -12 -29 -15 -42 -2 -13 -13 -62
-25 -109 -25 -105 -49 -233 -57 -308 -3 -30 -8 -65 -10 -76 -29 -148 -23 -606
12 -836 3 -19 7 -52 10 -73 7 -49 12 -72 14 -72 1 0 3 -13 5 -30 1 -16 5 -40
9 -52 4 -13 9 -35 12 -49 22 -121 173 -577 197 -595 4 -3 -7 -35 -26 -70 -83
-158 -81 -337 7 -499 16 -30 35 -61 42 -67 7 -7 21 -23 31 -36 29 -36 96 -85
161 -117 124 -61 282 -71 403 -26 88 33 99 39 99 47 0 5 6 9 13 9 24 0 126
101 164 162 21 34 38 64 39 67 0 3 6 18 12 32 30 74 39 210 18 304 -8 40 -58
155 -67 155 -5 0 -9 6 -9 13 0 13 -78 98 -121 132 -41 33 -88 57 -158 81 -36
13 -69 29 -72 36 -27 55 -107 274 -110 303 -1 6 -6 21 -11 35 -5 14 -11 32
-14 40 -37 152 -46 190 -47 218 -1 12 -3 22 -6 22 -4 0 -6 12 -7 28 0 15 -3
41 -7 57 -4 17 -9 64 -13 105 -3 41 -8 83 -10 95 -7 29 -6 384 0 425 3 19 8
60 11 90 8 76 12 103 21 152 4 24 8 50 9 58 0 9 4 21 9 28 4 6 5 12 2 12 -2 0
2 28 11 63 8 34 16 70 18 79 2 9 9 26 15 37 6 12 8 21 6 21 -3 0 1 18 9 40 8
22 14 41 14 43 0 1 4 15 10 30 6 16 11 31 11 35 0 9 65 176 87 222 78 169 130
261 222 399 42 63 81 121 86 130 6 8 18 24 28 35 10 12 27 32 37 46 l18 26
-79 97 c-43 53 -79 100 -79 103 0 4 -8 14 -18 23 -16 14 -54 60 -129 158 -12
15 -32 40 -45 54 l-23 26 -45 -55z"/>
        <path d="M4905 7441 c-2 -2 -32 -5 -67 -7 -161 -10 -291 -37 -478 -100 -90
-31 -365 -157 -380 -175 -3 -3 -31 -22 -63 -43 -33 -20 -64 -41 -70 -46 -7 -6
-39 -31 -72 -57 -99 -77 -223 -202 -306 -308 -43 -55 -85 -108 -94 -117 -8
-10 -13 -18 -11 -18 3 0 -10 -23 -29 -52 -19 -28 -53 -90 -77 -137 -24 -47
-47 -89 -53 -93 -5 -4 -7 -8 -2 -8 4 0 1 -12 -7 -27 -27 -54 -98 -275 -110
-346 -3 -15 -7 -35 -10 -45 -5 -17 -12 -62 -22 -137 -3 -22 -7 -81 -8 -131 -2
-51 -7 -97 -10 -103 -4 -6 -4 -11 1 -11 4 0 8 -35 9 -78 1 -101 10 -176 36
-292 11 -52 21 -102 23 -110 1 -8 5 -22 8 -30 10 -27 27 -86 31 -107 3 -12 9
-29 15 -39 5 -11 16 -35 23 -54 55 -144 215 -418 297 -509 17 -19 31 -38 31
-42 0 -8 -33 -102 -48 -139 -3 -8 -7 -19 -7 -25 -1 -5 -5 -19 -9 -30 -33 -88
-48 -128 -66 -180 -12 -33 -23 -64 -24 -70 -2 -5 -6 -19 -10 -30 -5 -11 -12
-33 -18 -50 -5 -16 -14 -39 -18 -50 -15 -37 -23 -60 -26 -74 -1 -8 -17 -52
-34 -98 -18 -46 -33 -90 -34 -96 -2 -7 -6 -19 -9 -27 -4 -8 -48 -132 -97 -275
-50 -143 -94 -267 -97 -275 -3 -8 -7 -19 -9 -25 -1 -5 -8 -23 -15 -40 -12 -29
-16 -42 -22 -67 -2 -7 -15 -44 -29 -83 -15 -38 -42 -115 -62 -170 l-35 -99 88
-116 c48 -64 136 -181 197 -261 60 -79 111 -146 114 -149 3 -3 23 -30 45 -60
22 -30 50 -66 62 -80 13 -14 23 -28 23 -32 0 -5 8 -16 18 -26 9 -9 42 -51 72
-92 30 -41 58 -76 62 -78 5 -2 8 -10 8 -18 0 -9 4 -12 10 -9 5 3 10 0 10 -7 0
-7 14 -29 30 -48 17 -19 45 -56 63 -82 17 -26 37 -48 44 -48 6 0 49 17 95 39
45 21 119 54 163 74 44 19 107 47 140 63 33 15 62 29 65 29 3 1 30 13 60 27
52 24 139 64 205 93 85 38 156 70 215 98 36 17 71 32 78 33 29 5 43 31 82 152
23 70 44 134 47 142 4 8 7 17 7 20 1 3 5 11 9 18 5 6 6 12 3 12 -3 0 6 30 20
68 14 37 25 67 24 67 -1 0 4 13 10 29 6 16 12 36 13 45 4 22 56 182 68 206 5
11 11 29 13 40 3 11 12 40 21 65 9 25 18 52 20 60 5 20 104 320 112 340 3 8 7
20 8 25 4 18 146 449 163 495 9 25 17 47 18 50 9 50 17 57 72 69 154 34 299
83 457 156 60 28 241 134 273 160 9 8 46 36 82 62 91 68 273 252 351 356 138
184 246 396 308 602 34 114 51 187 46 196 -3 4 -1 10 4 14 5 3 10 13 10 23 -1
9 2 35 5 57 24 167 25 417 2 560 -17 105 -48 244 -64 285 -3 8 -6 17 -7 20
-30 111 -171 417 -210 456 -8 8 -17 23 -20 34 -3 11 -11 20 -16 20 -5 0 -9 7
-9 15 0 8 -4 15 -10 15 -5 0 -10 7 -10 15 0 8 -4 15 -10 15 -5 0 -10 5 -10 10
0 6 -8 18 -17 28 -10 10 -34 38 -53 62 -40 51 -175 188 -236 240 -23 19 -52
44 -65 55 -13 11 -31 24 -40 30 -8 5 -51 34 -95 63 -69 47 -245 139 -354 185
-57 25 -188 65 -285 87 -49 11 -99 23 -110 26 -28 7 -142 18 -192 18 -24 1
-43 3 -43 6 0 6 -190 7 -195 1z m275 -565 c66 -9 95 -14 140 -25 25 -7 53 -13
63 -16 81 -19 357 -140 357 -157 0 -4 7 -8 15 -8 8 0 15 -4 15 -10 0 -5 7 -10
15 -10 8 0 15 -4 15 -10 0 -5 5 -10 11 -10 18 0 152 -115 230 -198 74 -79 186
-235 182 -253 -2 -5 1 -9 5 -9 8 0 42 -65 80 -150 25 -58 73 -206 78 -245 2
-16 6 -41 10 -55 23 -103 24 -397 1 -444 -6 -12 -5 -16 1 -13 12 8 -39 -189
-71 -275 -38 -99 -92 -202 -155 -298 -60 -88 -244 -282 -299 -315 -18 -11 -33
-23 -33 -27 0 -4 -6 -8 -14 -8 -8 0 -16 -4 -18 -8 -3 -8 -104 -72 -113 -72 -2
0 -27 -13 -55 -30 -27 -16 -50 -28 -50 -26 0 2 -32 -9 -71 -25 -73 -30 -207
-67 -253 -71 -14 -1 -26 -5 -26 -8 0 -3 -15 -6 -33 -7 -17 0 -80 -3 -140 -6
-59 -2 -109 -6 -111 -8 -4 -6 -47 -127 -51 -147 -2 -9 -17 -53 -34 -97 -57
-153 -100 -280 -105 -310 -3 -16 -21 -77 -41 -135 -20 -58 -41 -118 -45 -135
-5 -16 -41 -124 -80 -240 -40 -115 -73 -214 -75 -220 -1 -5 -5 -18 -8 -27 -4
-10 -10 -26 -14 -35 -3 -10 -7 -22 -8 -28 -2 -5 -19 -56 -39 -113 -19 -56 -33
-102 -29 -102 3 0 1 -6 -4 -13 -5 -6 -36 -92 -69 -189 -64 -195 -51 -177 -156
-222 -18 -8 -63 -28 -101 -45 -37 -17 -69 -31 -71 -31 -3 0 -43 -18 -90 -40
-47 -22 -89 -40 -94 -40 -5 0 -15 11 -22 25 -7 14 -17 25 -22 25 -4 0 -8 6 -8
14 0 7 -10 24 -22 38 -20 21 -83 109 -113 157 -5 9 -13 18 -16 21 -3 3 -20 28
-39 55 -19 28 -36 52 -39 55 -3 3 -23 30 -44 61 l-37 56 31 89 c16 49 34 98
39 109 5 11 26 67 46 125 20 58 37 106 38 107 1 1 31 -8 66 -21 36 -12 70 -24
75 -25 6 -2 15 -5 20 -7 112 -41 241 -82 245 -79 4 2 17 37 31 77 13 40 27 75
30 78 4 3 10 21 14 40 4 19 10 40 13 45 4 6 7 15 8 20 2 6 19 54 38 109 20 54
36 104 36 111 0 7 -42 27 -92 45 -51 19 -104 38 -118 43 -14 6 -28 11 -32 12
-5 2 -9 3 -10 5 -2 1 -11 3 -21 5 -10 2 -26 7 -35 11 -9 4 -21 8 -27 10 -29 7
-65 25 -65 32 0 7 34 109 47 142 3 8 7 20 9 25 8 30 96 283 104 300 14 30 53
148 53 163 0 6 4 12 9 12 5 0 7 4 4 8 -3 5 1 19 8 33 11 23 14 29 22 54 1 6 8
28 15 50 7 22 14 42 14 45 1 3 4 12 8 20 3 8 17 47 31 86 l25 72 -46 41 c-25
22 -48 41 -50 41 -6 0 -98 97 -136 144 -18 22 -38 45 -44 52 -7 7 -13 15 -13
18 0 3 -15 25 -32 49 -59 76 -169 314 -184 397 -2 14 -9 36 -14 50 -8 23 -18
70 -26 125 -3 18 -16 205 -16 230 -1 100 34 298 74 415 12 36 21 68 20 73 -1
4 3 7 8 7 6 0 10 7 10 15 0 23 55 129 118 225 78 121 167 222 266 303 21 18
43 37 50 43 21 20 153 104 164 104 6 0 12 4 14 8 2 6 112 63 128 67 3 0 32 11
65 24 104 40 209 65 320 77 33 3 61 7 62 8 4 4 246 -3 283 -8z"/>
        <path d="M4915 6003 c-38 -7 -77 -14 -85 -15 -8 0 -18 -6 -22 -11 -3 -6 -15
-12 -26 -14 -23 -3 -77 -38 -126 -81 -43 -38 -116 -130 -116 -147 0 -7 -3 -15
-7 -17 -5 -1 -16 -26 -26 -54 -80 -227 4 -479 203 -613 137 -92 277 -116 440
-76 14 4 31 7 38 7 6 1 12 5 12 10 0 4 6 8 14 8 44 0 226 143 226 178 0 6 3
12 8 12 12 0 51 81 72 150 24 80 22 243 -4 303 -9 20 -13 37 -9 37 5 0 4 4 -2
8 -5 4 -21 29 -35 55 -50 96 -179 207 -275 236 -22 7 -47 15 -55 18 -47 18
-147 21 -225 6z"/>
    </g>
</svg>
